<svg width="9" height="10" viewBox="0 0 9 10" fill="none" xmlns="http://www.w3.org/2000/svg">
    <path
        d="M7.77272 4.10813C7.85149 4.15361 7.9169 4.21903 7.96237 4.2978C8.00785 4.37657 8.03179 4.46592 8.03179 4.55688C8.03179 4.64783 8.00785 4.73719 7.96237 4.81596C7.9169 4.89473 7.85149 4.96014 7.77272 5.00562L0.777272 9.04433C0.6985 9.08981 0.609144 9.11375 0.518185 9.11375C0.427226 9.11375 0.33787 9.08981 0.259096 9.04433C0.180323 8.99885 0.114909 8.93344 0.0694281 8.85467C0.0239472 8.7759 2.31068e-06 8.68654 0 8.59558V0.518168C2.31068e-06 0.42721 0.0239472 0.337854 0.0694281 0.259082C0.114909 0.180311 0.180323 0.114898 0.259096 0.0694199C0.33787 0.0239416 0.427226 -5.77685e-07 0.518185 0C0.609144 5.77706e-07 0.6985 0.0239438 0.777272 0.0694232L7.77272 4.10813Z"
        fill="white" />
</svg>
    